<svg width="83" height="24" viewBox="0 0 83 24" fill="none" xmlns="http://www.w3.org/2000/svg">
<path d="M13.5197 2.37345C13.2303 1.90585 12.854 1.49876 12.4095 1.17419C11.9617 0.867226 11.4699 0.629577 10.9517 0.466742C10.3884 0.283004 9.8075 0.159779 9.21777 0.100367C8.52793 0.0332525 7.83478 0.00134631 7.14273 0.004647H1.14427C0.569951 -0.0492644 0.061643 0.372123 0.00663139 0.945344C0.00553116 0.955246 0.00443213 0.966248 0.00443213 0.97615C0.00443213 0.97615 0.00443213 1.01246 0.00443213 1.03006V10.7715C0.836207 12.5561 2.217 14.0271 3.94546 14.97V13.0149C3.89045 12.3812 4.35915 11.8222 4.99288 11.7672C4.99398 11.7672 4.99508 11.7672 4.99508 11.7672H6.79506C9.25078 11.7672 11.1245 11.2534 12.4161 10.2258C13.7078 9.19818 14.3636 7.67436 14.3834 5.65544C14.3856 5.07341 14.3173 4.49359 14.1798 3.92807C14.0434 3.37796 13.82 2.85315 13.5197 2.37345ZM10.0055 7.3817C9.79649 7.74148 9.48513 8.03193 9.11215 8.21567C8.70726 8.40931 8.27047 8.52484 7.82268 8.55785C7.33087 8.61946 6.83687 8.64917 6.34067 8.64807H4.6133C4.19962 8.64807 3.94106 8.31249 3.94106 7.82069V3.80154C3.91906 3.47147 4.16881 3.18541 4.49888 3.16231C4.53739 3.16011 4.57479 3.16121 4.6122 3.16561H6.33957C6.89958 3.16561 7.4277 3.18211 7.9228 3.21402C8.36509 3.23493 8.79858 3.34165 9.20017 3.52649C9.56985 3.69152 9.87901 3.96768 10.0815 4.31865C10.3114 4.78845 10.4159 5.30886 10.3873 5.83037C10.3994 6.37169 10.2663 6.9053 10.0033 7.3784L10.0055 7.3817ZM3.95316 15.5575C2.47445 15.0239 1.12777 14.1767 0.00663139 13.0743V17.7833C-0.0450795 18.1508 0.211276 18.4907 0.578753 18.5414C0.587555 18.5425 0.597457 18.5435 0.606259 18.5446H3.31723C4.03678 18.5446 3.95316 17.7767 3.95316 17.7767V15.5575ZM41.2147 5.13283H38.8756C38.4146 5.10312 37.9987 5.40898 37.892 5.85898L35.1744 13.345C35.1744 13.345 32.7748 6.52462 32.5955 5.99651C32.491 5.4948 32.052 5.13283 31.5393 5.12622H29.3861C28.6182 5.12622 28.6182 5.72585 28.7205 5.9602C28.8228 6.19455 31.7681 14.2681 32.919 17.3575C33.1005 17.7382 33.227 18.142 33.2963 18.5567C33.2215 18.9671 33.0664 19.3588 32.8408 19.7087C32.7528 19.8572 32.6527 19.9981 32.5405 20.129C34.7597 19.4688 37.3397 17.0637 38.6347 14.4661C39.9428 10.8672 41.6636 6.06802 41.7417 5.82267C41.8264 5.44419 41.8264 5.13283 41.2147 5.13283ZM30.79 20.8606C30.5898 20.8551 30.3895 20.8397 30.1904 20.8122C29.9439 20.7759 29.4763 20.8122 29.4763 21.2325V23.0325C29.4763 23.7223 29.8119 23.7707 29.9857 23.8181C30.5414 23.9402 31.1091 24.0007 31.6768 23.9985C32.349 24.0161 33.0158 23.8786 33.6264 23.5969C34.1842 23.3153 34.6804 22.9236 35.0842 22.445C35.5419 21.9213 35.9292 21.3414 36.2362 20.7176C36.5684 20.0542 36.8842 19.3203 37.1835 18.516L37.5311 17.5621C36.8358 18.2509 33.765 21.1478 30.79 20.8606ZM27.2506 7.28598C27.1229 6.98342 26.9491 6.70175 26.7346 6.452C26.5178 6.22095 26.2714 6.01961 26.0029 5.85238C25.7124 5.65434 25.4033 5.486 25.0787 5.34847C24.7486 5.22084 24.4098 5.11852 24.0654 5.04261C23.6704 4.95569 23.2688 4.89738 22.8661 4.86877C22.4338 4.82476 21.9508 4.80276 21.4149 4.80276C17.8403 4.80276 15.8049 5.93049 15.3087 8.18597C15.2283 8.50724 15.4231 8.8329 15.7443 8.91432C15.7752 8.92202 15.806 8.92752 15.8368 8.92972H18.0383C18.638 8.92972 18.638 8.74379 18.8657 8.22778C18.9658 7.94722 19.1452 7.70077 19.3817 7.52033C19.9439 7.15725 20.6096 6.98672 21.2774 7.03403C21.9001 6.97021 22.5262 7.12535 23.0466 7.47192C23.4438 7.8427 23.6792 8.3565 23.7001 8.90002C23.7001 9.64377 23.4724 10.1356 22.5482 10.1356C20.3587 10.0575 18.0075 10.3039 16.6817 11.0653C15.3538 11.8761 14.5616 13.3362 14.6067 14.8919C14.5913 15.4871 14.7123 16.0779 14.961 16.6192C15.1942 17.0901 15.5331 17.5005 15.9512 17.8185C16.3891 18.1761 16.8952 18.4412 17.4387 18.5986C18.0526 18.7647 18.6864 18.845 19.3223 18.8384C20.1783 18.8516 21.0299 18.7306 21.8473 18.4786C22.5702 18.1827 23.2534 17.7976 23.8806 17.3333V17.7536C23.8806 18.1673 24.006 18.5392 24.4802 18.5392H27.0294C27.5454 18.5392 27.6654 18.1728 27.6654 17.7173V9.86492C27.6687 9.37532 27.6346 8.88571 27.563 8.40161C27.5058 8.01763 27.4013 7.64355 27.2506 7.28598ZM23.765 14.9997C23.765 14.9997 23.1049 16.3794 20.7658 16.3794C20.2047 16.4047 19.6502 16.2518 19.1826 15.9415C18.7645 15.6169 18.5378 15.102 18.5829 14.5739C18.5301 13.8599 18.924 13.1865 19.5732 12.8829C20.5194 12.5198 21.5294 12.3503 22.5427 12.3845C23.1357 12.2953 23.6891 12.7035 23.7782 13.2965C23.787 13.3527 23.7903 13.4088 23.7903 13.4649L23.765 14.9997Z" fill="white"/>
<path d="M82.0634 9.94951C82.6663 10.9188 82.6663 12.1467 82.0634 13.1171C81.4638 14.0292 78.1939 17.5202 77.1146 18.6413C76.1783 19.6128 74.913 20.5965 73.6599 20.5965H47.6922C44.1769 20.5965 43.9668 19.3972 43.9668 16.7214V5.81044C43.9668 3.06867 44.7766 2.271 47.1817 2.271H73.7193C74.9614 2.271 76.0705 2.90693 77.3181 4.1909C78.4107 5.28783 81.6321 9.30148 82.0634 9.94951Z" fill="white"/>
<path d="M49.8653 6.48841V6.4224C49.8653 6.06812 49.8653 5.72705 49.2657 5.72705H47.0883C46.5789 5.72705 46.5547 6.00321 46.5547 6.4345V9.31381C47.4129 8.11786 48.5494 7.14855 49.8653 6.48841Z" fill="#191919"/>
<path d="M64.4461 16.9008V16.7446V9.79882C64.4461 6.89201 63.1621 5.4375 60.5953 5.4375C59.8812 5.4463 59.1826 5.65425 58.5797 6.03713C57.9151 6.45192 57.3221 6.97012 56.8226 7.57305C56.596 6.92171 56.157 6.3661 55.5749 5.99532C54.9137 5.63114 54.1644 5.454 53.4097 5.48591C52.2995 5.49031 51.2213 5.86109 50.3444 6.54213C50.153 6.73357 46.5475 9.54137 46.5475 12.4691V16.914C46.5475 17.0515 46.476 17.5918 47.0811 17.5918H49.3421C50.0441 17.5918 49.9781 17.1297 49.9781 16.9382V9.7405C50.3554 9.2311 51.13 8.01314 52.4074 8.01314C52.8233 7.97574 53.227 8.16607 53.4636 8.51155C53.7199 9.02316 53.8322 9.59637 53.7871 10.1674V15.7764V16.9283C53.7871 17.0659 53.7155 17.6061 54.3207 17.6061H56.5585C57.2605 17.6061 57.1945 17.144 57.1945 16.9525V16.7963V9.71851C57.6027 9.2091 58.3937 7.99114 59.6238 7.99114C60.0441 7.95703 60.4523 8.14627 60.6976 8.48955C60.9584 9.00005 61.0728 9.57328 61.0277 10.1454V15.7544V16.9063C61.0277 17.0438 60.9562 17.5841 61.5613 17.5841H63.8223C64.5297 17.5434 64.4461 17.0868 64.4461 16.9008Z" fill="#191919"/>
<path d="M76.9165 14.0766C76.1276 16.1967 74.0536 17.5599 71.7938 17.4422C68.339 17.4422 66.0352 15.091 66.0352 11.5636C66.0352 8.0363 68.4348 5.56519 71.6738 5.56519C74.9129 5.56519 77.0727 7.80856 77.2102 11.4261C77.2102 11.8882 77.0958 12.2964 76.5149 12.2964H69.1851C69.2335 14.2339 70.1632 15.2956 71.818 15.2956C72.7158 15.3176 73.5442 14.817 73.9414 14.0117C74.0966 13.785 74.3562 13.6519 74.6313 13.6574H76.5204C76.7283 13.6475 76.9054 13.8081 76.9153 14.0172C76.9164 14.0458 76.9154 14.0733 76.9098 14.1019L76.9165 14.0766ZM71.6859 7.80196C70.3118 7.80196 69.3821 8.75586 69.1785 10.327H74.0977C73.9711 8.9539 73.2274 7.80196 71.6859 7.80196Z" fill="#191919"/>
</svg>
